<?xml version="1.0" standalone="no"?>
<!DOCTYPE svg PUBLIC "-//W3C//DTD SVG 20010904//EN"
 "http://www.w3.org/TR/2001/REC-SVG-20010904/DTD/svg10.dtd">
<svg version="1.0" xmlns="http://www.w3.org/2000/svg"
 width="1076.000000pt" height="1076.000000pt" viewBox="0 0 1076.000000 1076.000000"
 preserveAspectRatio="xMidYMid meet">
<metadata>
Created by potrace 1.14, written by Peter Selinger 2001-2017
</metadata>
<g transform="translate(0.000000,1076.000000) scale(0.100000,-0.100000)"
fill="#000000" stroke="none">
<path d="M5889 10513 c-41 -21 -76 -41 -79 -44 -3 -4 -21 -13 -40 -22 -22 -9
-154 -136 -365 -352 -181 -186 -369 -378 -417 -427 -49 -48 -88 -93 -88 -98 0
-6 -4 -10 -10 -10 -5 0 -10 -5 -10 -10 0 -6 -5 -16 -10 -23 -6 -7 -26 -37 -45
-67 -19 -30 -39 -62 -45 -70 -5 -8 -43 -67 -84 -130 -41 -63 -80 -122 -88
-130 -7 -8 -12 -16 -11 -17 2 -2 -31 -55 -72 -118 -41 -63 -82 -130 -91 -148
-9 -17 -20 -34 -23 -37 -3 -3 -14 -21 -23 -40 -30 -62 -73 -135 -83 -142 -5
-4 -6 -8 -1 -8 5 0 3 -7 -4 -15 -13 -16 -52 -83 -73 -125 -6 -14 -16 -28 -22
-32 -5 -4 -6 -8 -1 -8 5 0 2 -8 -7 -17 -21 -24 -107 -196 -107 -215 0 -7 -4
-18 -8 -23 -4 -6 -14 -28 -21 -50 -7 -22 -19 -53 -26 -70 -7 -16 -25 -64 -40
-105 -16 -41 -32 -80 -36 -86 -5 -6 -10 -19 -12 -30 -2 -10 -9 -32 -15 -47 -7
-16 -12 -31 -12 -34 0 -3 -6 -19 -14 -36 -16 -38 -40 -100 -41 -107 -1 -3 -9
-23 -18 -44 -10 -22 -20 -51 -24 -65 -3 -14 -13 -36 -21 -48 -8 -13 -11 -23
-7 -23 4 0 2 -7 -5 -15 -7 -8 -9 -15 -4 -15 5 0 5 -4 -1 -8 -10 -7 -42 -86
-52 -129 -5 -21 -11 -23 -72 -23 -58 0 -70 3 -96 28 -16 15 -75 63 -130 107
-55 44 -104 85 -110 91 -47 50 -145 110 -336 204 -123 61 -246 123 -274 137
-27 15 -57 30 -65 33 -8 4 -31 15 -51 24 -23 11 -53 16 -89 14 l-53 -3 -3 -39
c-2 -42 9 -57 102 -134 42 -34 53 -49 58 -82 3 -22 6 -41 5 -42 0 -2 5 -16 11
-33 7 -16 14 -41 16 -53 3 -13 12 -49 20 -80 21 -76 42 -163 48 -197 3 -15 7
-30 10 -32 3 -3 1 -16 -4 -29 -5 -13 -6 -24 -2 -24 4 0 6 -28 4 -62 -3 -74 -3
-69 0 -136 2 -28 -1 -52 -5 -52 -5 0 -5 -6 -1 -12 10 -16 10 -50 1 -65 -4 -6
-3 -14 2 -17 6 -4 6 -18 1 -36 -5 -17 -6 -30 -2 -30 4 0 7 -16 7 -35 0 -19 -4
-35 -9 -35 -5 0 -4 -6 1 -12 10 -16 10 -98 0 -115 -5 -7 -5 -13 0 -13 4 0 8
-25 8 -55 0 -30 -4 -55 -8 -55 -5 0 -5 -6 -1 -12 10 -16 10 -50 1 -65 -4 -6
-3 -14 3 -18 7 -4 7 -12 0 -26 -6 -10 -7 -19 -2 -19 5 0 8 -12 6 -27 -2 -16
-6 -46 -8 -68 -6 -51 -14 -105 -27 -177 -5 -31 -9 -60 -8 -65 1 -4 0 -10 -1
-13 -3 -10 -8 -38 -14 -92 -4 -31 -9 -66 -11 -78 -2 -12 -7 -41 -9 -64 -3 -22
-7 -50 -10 -61 -2 -11 -7 -45 -10 -76 -4 -31 -9 -67 -12 -80 -3 -13 -7 -42 -9
-64 -2 -22 -4 -40 -5 -40 -2 0 -6 -24 -14 -80 -3 -27 -8 -62 -11 -76 -3 -14
-7 -45 -9 -70 -3 -24 -5 -44 -6 -44 -1 0 -3 -13 -5 -30 -15 -116 -24 -175 -35
-245 -25 -149 -31 -227 -21 -245 3 -5 6 -28 8 -50 2 -22 8 -60 13 -85 5 -25
12 -67 16 -95 3 -27 8 -60 9 -72 3 -19 16 -96 20 -113 1 -3 5 -32 9 -65 4 -32
10 -68 12 -80 2 -11 6 -33 8 -50 3 -16 7 -43 10 -60 2 -16 7 -49 11 -72 4 -23
13 -47 21 -54 8 -6 14 -17 14 -23 0 -7 9 -30 19 -52 19 -39 59 -125 111 -239
15 -33 40 -87 56 -120 15 -33 28 -62 29 -65 0 -3 20 -45 43 -95 33 -68 57
-103 101 -145 32 -30 118 -111 191 -180 121 -114 202 -190 285 -269 30 -29
235 -136 235 -123 0 4 4 2 8 -3 6 -9 55 -35 72 -40 3 -1 43 -20 90 -42 47 -23
156 -75 243 -117 l159 -76 93 0 c84 0 93 2 98 20 3 11 1 20 -4 20 -4 0 -6 7
-3 15 5 12 -32 81 -56 105 -3 3 -43 61 -89 130 -47 69 -97 142 -113 162 -26
33 -30 47 -33 125 -3 48 -8 144 -11 213 -4 69 -7 144 -8 167 -1 24 -3 43 -6
43 -3 0 -6 56 -8 125 l-3 125 58 112 c32 62 61 115 65 116 5 2 8 11 8 21 0 9
4 21 9 27 7 8 132 249 295 569 28 55 56 103 61 107 6 4 7 8 3 8 -3 0 5 21 19
48 64 118 92 174 92 180 -1 4 -1 9 0 12 2 3 4 25 6 50 4 42 8 75 20 175 6 41
10 84 21 192 6 59 2 77 -66 285 -40 123 -75 230 -78 238 -3 8 -6 18 -7 23 -2
4 -3 8 -5 10 -1 1 -3 10 -5 20 -2 11 -6 21 -9 24 -2 3 11 21 30 40 l35 34 177
-91 c97 -51 183 -97 190 -102 6 -6 12 -8 12 -4 0 3 18 -5 40 -19 22 -14 40
-22 40 -18 0 5 4 4 8 -2 4 -5 34 -23 67 -40 33 -16 62 -33 63 -37 2 -5 9 -8
15 -8 25 0 195 -95 234 -131 24 -22 41 -39 39 -39 -2 0 42 -47 98 -104 300
-310 426 -452 426 -485 0 -4 9 -16 20 -26 11 -10 20 -24 20 -32 0 -7 4 -13 9
-13 5 0 14 -13 21 -30 7 -16 16 -30 21 -30 5 0 9 -7 9 -15 0 -8 5 -15 10 -15
6 0 10 -4 10 -10 0 -5 22 -40 48 -77 52 -73 66 -101 107 -208 14 -38 30 -79
35 -90 47 -116 60 -151 60 -158 0 -5 6 -23 14 -40 50 -114 79 -203 81 -254 4
-69 15 -215 29 -373 4 -41 9 -104 11 -140 2 -36 5 -65 5 -65 1 0 3 -18 4 -39
2 -38 -11 -81 -99 -321 -20 -55 -49 -137 -65 -182 -16 -46 -32 -88 -37 -95 -4
-7 -8 -17 -8 -23 -1 -5 -6 -23 -13 -38 -14 -32 -2 -58 33 -77 20 -11 66 1 150
40 11 5 49 19 85 31 36 12 70 26 75 29 6 4 28 13 50 20 22 7 54 18 70 25 17 7
45 18 63 25 19 7 39 18 45 24 7 6 71 54 142 106 72 52 139 103 149 112 11 10
23 18 26 18 4 0 16 8 27 18 11 9 70 53 129 96 60 44 129 104 154 134 25 31 59
71 75 90 83 97 113 132 140 166 17 21 44 52 60 70 48 53 85 99 85 108 0 4 7 8
17 8 9 0 14 3 10 6 -3 3 7 20 23 37 15 17 39 53 51 81 13 28 26 53 29 56 11
10 154 305 152 313 -1 4 2 7 8 7 5 0 10 7 10 14 0 8 11 50 24 93 13 43 38 125
56 183 17 58 35 116 40 130 12 36 63 203 66 215 1 6 11 42 23 81 21 72 22 98
7 319 -3 39 -8 115 -11 170 -3 55 -8 129 -11 165 -2 36 -6 106 -9 155 -6 108
-11 140 -31 182 -20 45 -72 170 -92 223 -9 25 -20 47 -24 48 -5 2 -8 11 -8 21
0 36 -25 54 -74 54 -25 0 -49 -3 -52 -6 -3 -3 -16 -45 -29 -94 -73 -271 -81
-293 -171 -438 -13 -22 -30 -51 -37 -65 -6 -14 -14 -27 -18 -30 -3 -3 -16 -25
-30 -50 -13 -25 -30 -51 -36 -58 -7 -7 -13 -18 -13 -23 0 -5 -12 -28 -27 -50
l-26 -40 -76 3 -76 3 -1 190 c0 105 -4 204 -7 220 -4 17 -9 39 -11 50 -2 11
-9 39 -15 62 -10 38 -27 111 -36 158 -2 11 -13 61 -25 110 -12 50 -24 101 -26
115 -3 14 -12 52 -21 85 -9 33 -16 70 -16 83 -1 12 -5 22 -9 22 -4 0 -8 4 -8
8 0 5 -36 68 -80 141 -44 73 -80 135 -80 138 0 2 -13 24 -30 48 -16 24 -30 48
-30 54 0 6 -4 11 -10 11 -5 0 -10 5 -10 10 0 6 -22 47 -50 91 -27 44 -50 85
-50 90 0 5 -4 9 -10 9 -5 0 -10 4 -10 9 0 5 -20 42 -45 83 -25 40 -49 82 -54
93 -5 11 -37 57 -72 101 -83 106 -221 278 -228 284 -3 3 -24 28 -46 55 -21 28
-42 52 -45 55 -3 3 -17 21 -31 40 -15 19 -37 46 -49 60 -12 14 -31 38 -43 53
-12 16 -27 34 -32 40 -6 7 -30 37 -54 67 -25 30 -49 60 -55 65 -36 34 -101
138 -158 255 -37 74 -116 235 -176 356 l-110 221 0 709 c1 405 5 725 10 748 6
23 11 50 13 61 9 60 17 105 25 150 5 28 12 66 14 85 6 36 11 63 22 113 3 15 2
27 -3 27 -5 0 -43 -17 -84 -37z"/>
<path d="M1538 3362 c-19 -2 -66 -45 -169 -153 -78 -82 -144 -150 -145 -152
-2 -1 -6 -16 -9 -32 -3 -17 -7 -34 -9 -40 -9 -31 -38 -132 -41 -143 -3 -7 -5
-13 -5 -15 0 -1 -9 -30 -19 -65 -11 -35 -17 -75 -15 -90 3 -15 13 -65 23 -112
10 -47 19 -92 19 -100 2 -18 26 -137 35 -165 3 -11 8 -37 11 -57 15 -99 51
-193 96 -253 4 -5 20 -32 36 -60 15 -27 36 -63 46 -80 10 -16 23 -41 30 -55 7
-14 15 -27 18 -30 3 -3 17 -27 30 -55 19 -38 105 -129 344 -367 273 -270 329
-320 380 -345 34 -15 63 -31 64 -35 2 -5 9 -8 15 -8 6 0 49 -19 96 -42 47 -23
88 -42 91 -43 3 0 67 -31 143 -68 76 -37 142 -67 147 -67 6 0 10 -5 10 -10 0
-6 3 -9 8 -8 4 2 45 -16 92 -38 199 -97 259 -125 277 -129 10 -2 43 -11 75
-19 31 -8 67 -17 80 -20 12 -3 77 -19 143 -36 66 -17 128 -32 138 -33 9 0 17
-5 17 -10 0 -4 4 -6 9 -3 4 3 39 -3 77 -14 38 -10 80 -21 94 -24 14 -3 41 -10
60 -16 19 -6 46 -13 60 -15 14 -2 52 -11 85 -20 33 -9 71 -18 85 -21 14 -2 32
-7 40 -11 8 -3 22 -7 30 -8 36 -6 70 -14 79 -19 8 -5 46 -10 166 -22 33 -3 74
-7 90 -8 17 -2 59 -7 95 -11 36 -3 81 -8 100 -10 19 -3 67 -7 105 -11 39 -3
88 -8 110 -10 22 -3 58 -6 80 -8 22 -3 72 -7 110 -11 83 -9 81 -9 300 0 94 5
205 8 247 9 43 1 78 3 78 6 0 3 39 6 88 6 87 1 317 11 467 19 44 3 111 11 150
19 38 9 71 13 74 11 2 -3 10 0 18 6 7 6 13 9 13 6 0 -3 17 -1 38 4 20 5 51 12
67 14 17 3 41 7 55 10 56 12 76 16 102 20 15 2 35 6 45 9 10 3 34 8 53 11 19
3 54 10 78 16 50 11 112 22 130 22 6 0 12 4 12 9 0 5 4 6 10 3 5 -3 43 6 84
20 42 14 84 28 93 30 18 4 95 30 123 42 16 6 24 9 55 17 11 3 47 15 80 27 33
11 65 22 70 23 6 2 17 6 25 9 8 3 144 49 301 100 l286 94 349 234 c192 129
353 238 359 242 5 4 31 22 58 41 42 29 84 81 245 304 9 13 24 32 32 43 8 10
26 35 40 55 14 20 34 47 46 59 11 13 29 36 40 53 10 17 41 60 67 96 43 58 54
85 93 223 25 87 48 165 51 173 3 8 8 24 10 35 2 11 6 27 10 35 3 8 7 20 9 27
1 7 12 44 24 82 12 39 19 75 16 80 -4 5 -2 12 4 16 6 4 7 12 3 18 -4 7 -8 20
-9 30 -1 9 -2 18 -3 20 -1 1 -4 25 -6 52 -2 28 -6 70 -9 94 -3 24 -8 67 -11
95 -12 116 -16 130 -52 180 -21 28 -40 53 -43 56 -3 3 -23 32 -45 65 -22 33
-48 69 -57 79 -10 11 -18 23 -18 26 0 4 -9 17 -19 29 -16 18 -28 22 -67 19
l-48 -3 -1 -145 c-1 -137 -2 -148 -26 -190 -14 -25 -75 -131 -135 -235 -60
-105 -115 -203 -123 -218 -8 -15 -66 -75 -129 -134 -63 -60 -134 -126 -157
-148 -24 -22 -89 -83 -145 -135 -57 -52 -109 -101 -116 -108 -7 -6 -20 -12
-28 -12 -9 0 -16 -4 -16 -8 0 -5 -15 -16 -32 -25 -18 -10 -49 -27 -68 -38 -19
-11 -82 -48 -140 -81 -58 -34 -125 -74 -149 -89 -24 -16 -69 -38 -100 -49 -31
-11 -63 -24 -71 -27 -8 -4 -19 -8 -25 -8 -5 -1 -17 -5 -25 -8 -8 -4 -49 -18
-90 -32 -41 -14 -84 -30 -95 -35 -22 -9 -334 -120 -350 -124 -13 -4 -43 -15
-75 -28 -59 -24 -139 -46 -190 -52 -56 -7 -95 -13 -95 -16 0 -1 -16 -3 -35 -5
-36 -4 -87 -12 -130 -19 -14 -3 -45 -7 -70 -11 -25 -4 -54 -8 -65 -10 -22 -3
-92 -14 -140 -20 -16 -2 -41 -7 -55 -9 -13 -3 -42 -8 -65 -11 -22 -3 -51 -8
-65 -10 -14 -2 -45 -7 -70 -11 -25 -3 -64 -9 -88 -14 -52 -9 -1436 -7 -1472 3
-21 6 -75 16 -165 31 -11 2 -33 6 -50 9 -16 3 -62 11 -102 17 -85 14 -108 18
-108 20 0 1 -16 3 -35 5 -19 3 -51 7 -70 11 -19 4 -47 8 -63 10 -25 3 -37 6
-92 17 -11 3 -41 7 -66 11 -52 8 -87 14 -126 22 -16 3 -41 7 -58 10 -16 2 -41
7 -53 10 -22 4 -62 10 -122 18 -14 2 -36 8 -50 13 -14 6 -59 22 -100 36 -41
14 -118 42 -170 60 -52 19 -111 40 -130 47 -33 11 -149 67 -265 128 -27 14
-52 26 -55 27 -3 1 -39 19 -80 40 -115 60 -234 119 -242 119 -4 1 -13 7 -19
14 -7 6 -17 12 -22 12 -5 0 -36 26 -69 58 -102 97 -151 143 -284 268 -221 208
-231 218 -250 248 -10 16 -19 35 -20 43 -2 8 -9 22 -16 31 -17 21 -58 105 -58
120 0 6 -4 12 -8 14 -5 2 -31 46 -57 98 l-49 95 0 222 c-1 134 -5 225 -11 230
-6 5 -22 7 -37 5z"/>
</g>
</svg>
