<?xml version="1.0" encoding="UTF-8"?>
<svg version="1.1" viewBox="0 0 218.67 269.33" xmlns="http://www.w3.org/2000/svg">
<g transform="translate(.15237 -.15754)" stroke-width="1.3333">
<path d="m84.296 214.67h-2.371l-19.358-9.2773-14.183-13.413-8.3307-18.074-3.1399-20.196 5.7573-39.706-0.0019-12.41-0.0019-12.41-2.9629-11.767-3.7037-3.0738v-2.3401h2.8162l16.028 7.9525 9.763 8.0475h3.1169l9.9444-26 8.1971-14.667 11.406-17.705 20.728-21.178 6.193-3.3139-1.0965 6.4319-1.0965 6.4319v34.729l9.009 18.293 17.56 21.644 12.666 21.177 2.0489 9.0082 2.0489 9.0082v9.4736h3.8876l6.9598-11.876 1.3056-4.7287 1.3057-4.7287h2.6774l4.1903 10 1.363 21.683-5.9589 19.618-5.3955 10.699-12.237 14.424-15.019 11.056-12.575 4.8025-1.395-1.395 5.9152-16.223-0.68879-8.9988-0.68878-8.9988-2.8472-7.4737-2.8472-7.4737-7.81-11.719-12.868-13.425-20.439-10.521-1.6528 1.6528 4.487 13.718-1.3991 12.413-15.267 29.661 0.53195 9.4141 0.53194 9.4141 7.2654 10.484v1.8567z" fill="#ed6d0d"/>
<path d="m118 264.43-14.667 0.66004-22.54-2.2937-28.127-7.0307-24.652-11.821-15.553-15.281-6.8836-12-2.9393-14.667 2.6424-9.1326 7.2181-7.5341h1.7233l0.011067 5.6667 0.01107 5.6667 5.479 10.685 14.514 13.727 16.272 8.214 11.491 4.125 30.667 5.2418 33.333-8e-3 25.333-3.894 22.109-7.9009 12.518-7.3363 13.031-12.186 7.6498-13.333 0.012-3.6667 0.012-3.6667h2.4851l2.935 4.1218 2.935 4.1218 0.64054 5.6829 0.64055 5.6829-2.1425 7.3698-2.1425 7.3699-11.888 16.149-20.109 13.569-27.355 9.085-20 3.9546-14.667 0.66004z" fill="#fff"/>
</g>
</svg>
