<svg width="76" height="74" viewBox="0 0 76 74" fill="none" xmlns="http://www.w3.org/2000/svg">
<path d="M29.8579 44.5502C24.5286 42.9085 21.2087 39.172 20.3641 33.8786C20.0729 32.0104 20.102 31.1895 20.6554 27.5096C21.6455 20.8575 21.4417 16.5266 20.0147 15.0263C19.6943 14.6867 19.4905 14.3187 19.5778 14.2338C19.8982 13.9224 24.0044 15.9888 25.1984 17.0644C26.538 18.2816 26.7127 18.1967 27.5282 15.734C29.0425 11.1483 32.275 6.13803 36.0318 2.59969C38.711 0.0803947 39.5847 -0.542353 39.2061 0.448382C38.7401 1.60896 38.4198 5.45867 38.5363 7.86474C38.6819 10.1293 38.8275 10.8086 39.672 12.3938C40.4583 13.8941 43.7491 18.3099 44.5645 18.9327C45.0014 19.2723 46.9234 22.7541 47.3602 23.9713C47.6223 24.7072 47.9136 26.2358 48.0009 27.3681C48.0883 28.5003 48.263 29.4345 48.4086 29.4345C48.8163 29.4345 50.3889 26.8302 50.7384 25.5281C50.9131 24.8771 51.1752 24.3109 51.2917 24.3109C51.7868 24.3109 52.5148 26.8302 52.6604 29.0099C52.7769 30.8781 52.6896 31.699 52.1654 33.3974C51.1752 36.5678 50.2724 38.068 47.9718 40.2759C46.0498 42.1442 43.6035 43.6161 41.4485 44.2672C40.8078 44.4653 40.8078 44.437 41.5941 42.9934C44.5354 37.5019 40.0215 29.0099 32.7119 26.2641C32.0421 26.0093 31.4596 25.8395 31.4596 25.8961C31.4596 25.9527 31.7508 26.5755 32.0712 27.3398C33.0322 29.4911 32.7701 31.1046 30.7898 34.841C29.3337 37.5868 29.1299 38.1246 29.1299 39.6249C29.1299 41.6063 29.4211 42.4555 30.6151 43.9275C31.6052 45.0598 31.5761 45.0881 29.8579 44.5502Z" fill="#ED6C0C"/>
<path d="M8.162 73.8195C4.08492 73.7063 3.70633 73.5931 4.2014 73.3949C5.16243 73.0552 64.3675 73.0552 67.4253 73.3666L69.755 73.6214L66.9885 73.8195C63.785 74.0743 17.0442 74.046 8.162 73.8195ZM0.968861 71.3568C0.00783518 71.2436 -0.225141 70.7907 0.211689 69.7434C0.444665 69.1772 1.46394 69.1489 1.66779 69.715C1.98813 70.5076 2.89091 70.7907 3.67721 70.2812C4.81297 69.5452 4.57999 68.696 2.92004 67.4788C1.58042 66.5164 1.46394 66.3182 1.46394 65.2709C1.46394 63.1762 3.61896 62.1005 6.7059 62.6101C7.75429 62.7799 7.8999 62.8931 7.75429 63.431C7.66692 63.7706 7.57956 64.1952 7.57956 64.3934C7.57956 64.5915 7.25922 64.7614 6.88063 64.7614C6.35643 64.7614 6.15258 64.5915 6.06521 64.1103C5.94872 63.2894 4.81297 63.1196 4.05579 63.7706C3.29862 64.4217 3.35687 64.9029 4.23053 65.4974C6.41468 66.9976 6.67677 67.309 6.67677 68.4129C6.67677 69.7717 5.80311 70.8756 4.40526 71.2436C3.35687 71.555 2.7453 71.555 0.968861 71.3568ZM32.4497 71.2436C31.1684 70.9039 30.4695 69.432 30.7316 67.592C30.9937 65.7238 31.9838 63.9122 33.0904 63.2894C34.1971 62.6667 36.323 62.3553 37.7208 62.6384C38.711 62.8082 38.7692 62.8931 38.6819 63.7423C38.6236 64.4217 38.4489 64.6765 37.9247 64.7331C37.4296 64.7897 37.2549 64.6765 37.2549 64.2519C37.2549 63.6008 36.3812 63.2328 35.3619 63.4876C34.0223 63.8273 32.508 67.592 33.0031 69.4603C33.2943 70.5359 34.1971 70.8756 34.9251 70.1963C35.5367 69.6018 35.7405 67.9317 35.2163 67.9317C35.0416 67.9317 34.9834 67.8185 35.0998 67.6487C35.3328 67.309 38.7401 67.2807 38.7401 67.6204C38.7401 67.7619 38.5654 68.0166 38.3324 68.2148C38.0994 68.3846 37.8373 69.1772 37.7208 69.9415C37.6043 70.7058 37.3714 71.3568 37.1966 71.3568C37.0219 71.3568 36.0609 71.4135 35.0998 71.4701C34.1388 71.4418 32.9448 71.3851 32.4497 71.2436ZM9.85107 70.7624C10.3753 70.3661 10.6374 69.6584 11.1033 67.1958C11.4237 65.4974 11.6858 63.9405 11.6858 63.7423C11.6858 63.1196 10.8995 63.3177 10.2297 64.1386C9.8802 64.5632 9.356 64.9312 9.06478 64.9878C8.56971 65.0728 8.54058 64.9312 8.65707 64.1669C8.97741 62.4119 8.71532 62.4968 13.171 62.5535L17.2772 62.6101L17.0733 63.6291C16.9568 64.1952 16.7821 64.7614 16.6656 64.8746C16.287 65.2426 15.5007 64.7897 15.4134 64.1386C15.3551 63.7706 15.1222 63.5159 14.7727 63.5159C14.1611 63.5159 13.7825 64.6765 13.1419 68.4696C12.8798 70.0264 12.8798 70.6209 13.1127 70.6775C13.2875 70.7341 13.4331 70.9039 13.4331 71.0455C13.4331 71.187 12.4721 71.3002 11.3072 71.3002C9.21039 71.2719 9.18127 71.2436 9.85107 70.7624ZM16.8986 71.0172C16.8986 70.8756 17.0733 70.7058 17.3063 70.6209C17.8887 70.3944 19.1119 63.7706 18.675 63.2611C18.18 62.6667 18.5877 62.5251 20.5097 62.5251C22.9851 62.5535 25.0528 62.9214 25.3731 63.3743C26.072 64.45 25.1401 67.0259 24.0044 67.0259C23.4802 67.0259 23.4802 66.9693 24.1791 68.2997C24.4994 68.9225 24.7615 69.5452 24.7615 69.7434C24.7615 69.9132 24.9654 70.2246 25.1984 70.4227C25.9847 71.0455 25.6643 71.3002 24.1209 71.2153L22.6065 71.1304L22.0823 69.6018C21.529 68.0166 20.9757 67.3656 20.6553 67.96C20.2768 68.6677 20.102 70.3944 20.3932 70.5643C21.1504 71.0172 20.5388 71.2719 18.7915 71.2719C17.7431 71.2719 16.8986 71.1587 16.8986 71.0172ZM22.8395 66.1201C23.7423 64.8746 23.2763 63.346 21.9658 63.346C21.4416 63.346 21.296 63.6008 21.063 65.0444L20.7718 66.7428H21.5581C22.0823 66.7428 22.5774 66.5164 22.8395 66.1201ZM38.4489 71.1587C38.4489 71.1021 38.7983 70.6775 39.2643 70.2246C39.7011 69.7717 40.9825 67.8751 42.0891 65.9503C44.0403 62.6101 44.1568 62.4685 45.0596 62.4685C45.8167 62.4685 46.0497 62.6101 46.1371 63.1196C46.2827 63.8839 46.8069 67.1674 47.069 69.064C47.1855 69.8 47.3602 70.4793 47.5058 70.5643C48.2048 70.9889 47.5641 71.2436 45.875 71.2436C44.1277 71.2436 43.5452 70.9889 44.2733 70.5359C44.448 70.451 44.5645 69.9981 44.5645 69.5169C44.5645 68.696 44.5354 68.696 43.1375 68.696C41.827 68.696 41.6814 68.7526 41.4193 69.5452C41.2446 70.0547 41.2155 70.451 41.3902 70.5643C42.0891 70.9889 41.5358 71.2719 40.0506 71.2719C39.1769 71.2719 38.4489 71.2153 38.4489 71.1587ZM44.448 66.9976C44.3607 66.5164 44.2733 65.837 44.2733 65.5257C44.2733 65.0161 44.215 64.9878 43.8947 65.3558C43.6908 65.5823 43.1958 66.2616 42.8463 66.8278L42.2056 67.9034H43.4287C44.6227 67.8751 44.6227 67.8751 44.448 66.9976ZM50.2724 69.8C49.9521 67.3939 49.3405 63.5442 49.1949 63.063C49.1075 62.7233 49.457 62.6101 50.884 62.5535C52.806 62.4685 52.9808 62.5535 52.2527 63.2328C51.9032 63.5725 51.845 64.082 51.9906 65.6955C52.1945 68.045 52.5148 68.8942 52.8643 68.045C52.9808 67.7619 53.5341 66.7995 54.0583 65.922C54.7281 64.8463 55.0193 64.0537 54.9611 63.4876C54.8737 62.6384 54.9028 62.6384 56.4172 62.5535C57.8441 62.4685 58.4557 62.8082 57.5238 63.1479C57.087 63.3177 56.2716 64.45 54.8446 67.0259C52.7187 70.7907 52.3401 71.2436 51.3791 71.2719C50.5054 71.2719 50.4763 71.2153 50.2724 69.8ZM57.087 71.0172C57.087 70.8756 57.2617 70.7058 57.4947 70.6209C58.0771 70.3944 59.3294 63.714 58.8634 63.2611C58.3101 62.7233 58.4848 62.6101 59.7662 62.5251C61.8047 62.4119 64.9208 62.8082 65.3867 63.2328C65.6197 63.4593 65.8236 64.1103 65.8236 64.6481C65.8236 65.4407 65.5906 65.8653 64.8043 66.6013C64.251 67.1108 63.9015 67.6204 64.0762 67.7053C64.2219 67.7902 64.5131 68.3846 64.7169 69.0074C65.4741 71.4701 66.6099 71.1587 68.4154 67.96C71.4441 62.5818 71.415 62.6101 72.6964 62.6101H73.8321L74.2981 66.3466C74.5602 68.4129 74.9096 70.2529 75.1135 70.4227C75.7833 71.0738 75.463 71.2153 73.4244 71.2153C71.3568 71.2153 71.0073 71.0172 71.8518 70.3661C72.1139 70.168 72.2595 69.6867 72.2304 69.2621C72.1431 68.6111 71.9974 68.5262 70.8034 68.4412C69.5512 68.3563 69.4347 68.4129 69.0852 69.2338C68.794 69.9132 68.794 70.1963 69.0852 70.5076C69.6094 71.1304 69.027 71.2436 65.7362 71.1587L62.8822 71.0738L62.3289 69.4603C61.7174 67.677 61.0184 67.1391 60.7855 68.2431C60.6981 68.6394 60.5816 69.2621 60.4942 69.6301C60.4069 69.9981 60.4651 70.3944 60.6399 70.5076C61.3679 70.9605 60.7855 71.2153 59.0381 71.2153C57.9315 71.2719 57.087 71.1587 57.087 71.0172ZM71.9392 66.4881C71.9392 64.9595 71.5024 64.818 70.7743 66.1767C70.0171 67.6204 70.0171 67.6204 71.0655 67.6204C71.881 67.592 71.9392 67.5354 71.9392 66.4881ZM63.29 65.6672C63.8142 64.818 63.8142 64.7048 63.3773 64.0254C63.1152 63.6291 62.6201 63.3177 62.2416 63.3177C61.6591 63.3177 61.5426 63.5159 61.2805 65.0161L60.9893 66.7145L61.863 66.6296C62.5037 66.6296 62.8823 66.3465 63.29 65.6672ZM31.3722 55.0805C21.0048 53.9199 13.6078 49.1078 12.6759 42.9369C12.4429 41.4083 12.9963 39.8515 14.1611 38.8041C15.1222 37.9266 15.4716 37.9549 15.1804 38.9173C14.8018 40.2478 15.559 42.116 17.3063 43.9559C19.8108 46.6451 23.451 48.2869 29.0134 49.1927C38.6527 50.7779 48.6125 48.9379 53.6797 44.607C55.7765 42.8237 57.2326 40.4459 57.0578 39.0872L56.9414 38.1248L57.7568 38.889C59.9992 40.9554 59.3585 45.3996 56.3589 48.5982C51.845 53.4387 41.2446 56.1844 31.3722 55.0805Z" fill="white"/>
</svg>
