<?xml version="1.0" encoding="UTF-8"?>
<svg version="1.1" viewBox="0 0 20 20" xmlns="http://www.w3.org/2000/svg">
<path d="M10 8.586L2.929 1.515 1.515 2.929 8.586 10l-7.071 7.071 1.414 1.414L10 11.414l7.071 7.071 1.414-1.414L11.414 10l7.071-7.071-1.414-1.414L10 8.586z"/>
<path d="m2.2241 17.776-0.69833-0.69833 7.0774-7.0775-7.0774-7.0775 1.3967-1.3967 7.0775 7.0774 7.0775-7.0774 1.3967 1.3967-7.0774 7.0775 7.0774 7.0775-1.3967 1.3967-7.0775-7.0774-7.0775 7.0774z" fill="#f17310" stroke-width=".023474"/>
<path d="m2.2183 17.77-0.70399-0.70428 7.0655-7.0656-7.0656-7.0657 1.4201-1.4201 7.0657 7.0656 7.0657-7.0656 1.4201 1.4201-7.0656 7.0657 7.0656 7.0657-1.4201 1.4201-7.0657-7.0656-3.527 3.527c-1.9399 1.9398-3.5324 3.527-3.5389 3.527-0.00652 0-0.32865-0.31693-0.71585-0.70428z" fill="#f17310" stroke-width=".023474"/>
<path d="m2.2183 17.77-0.70399-0.70428 7.0655-7.0656-7.0656-7.0657 1.4201-1.4201 7.0657 7.0656 7.0657-7.0656 1.4201 1.4201-7.0656 7.0657 7.0656 7.0657-1.4201 1.4201-7.0657-7.0656-3.527 3.527c-1.9399 1.9398-3.5324 3.527-3.5389 3.527-0.00652 0-0.32865-0.31693-0.71585-0.70428z" fill="#f17310" stroke-width=".023474"/>
<path d="m2.2253 17.775-0.71122-0.70842 7.0657-7.0668-7.0656-7.0657 1.4201-1.4201 7.0657 7.0656 7.0657-7.0656 1.4201 1.4201-7.0656 7.0657 7.0656 7.0657-1.4201 1.4201-7.0657-7.0656-7.0635 7.0634z" fill="#f17310" stroke-width=".023474"/>
<path d="m2.2257 17.775-0.71157-0.70791 7.0657-7.0671-7.0656-7.0657 1.4201-1.4201 7.0657 7.0656 7.0657-7.0656 1.4201 1.4201-7.0656 7.0657 7.0656 7.0657-1.4201 1.4201-7.0657-7.0656-7.0628 7.0627z" fill="#f17310" stroke-width=".023474"/>
<path d="m13.539 14.959-3.5386-3.5386-3.5282 3.5281c-3.5036 3.5035-3.5285 3.5278-3.5719 3.4799-0.024015-0.02654-0.049416-0.0425-0.056447-0.03547-0.00703 7e-3 -0.3117-0.286-0.67705-0.65117l-0.66426-0.66395 7.0775-7.0776-7.0774-7.0775 1.4201-1.4201 7.0775 7.0774 7.0775-7.0774 1.4201 1.4201-7.0774 7.0775 3.527 3.527c1.9398 1.9399 3.527 3.5376 3.527 3.5506 0 0.01298-0.3143 0.33776-0.69843 0.72173l-0.69843 0.69814z" fill="#f17310" stroke-width=".023474"/>
<path d="m13.539 14.959-3.5386-3.5386-3.4214 3.416c-1.8818 1.8788-3.4712 3.4625-3.5322 3.5195-0.10866 0.10149-0.11178 0.10268-0.15845 0.06043-0.026186-0.0237-0.047611-0.0336-0.047611-0.022s-0.30108-0.27986-0.66908-0.64768l-0.66908-0.66876 7.0775-7.0776-7.0774-7.0775 1.4201-1.4201 7.0775 7.0774 7.0775-7.0774 1.4201 1.4201-7.0774 7.0775 7.0775 7.0776-1.4205 1.4199z" fill="#f17310f17310" stroke-width=".023474"/>
<path d="m13.539 14.959-3.5386-3.5386-3.3392 3.3336c-1.8366 1.8335-3.426 3.4173-3.532 3.5197-0.18997 0.18339-0.19348 0.18547-0.24061 0.14281-0.026308-0.02381-0.047833-0.0338-0.047833-0.0222s-0.30108-0.27986-0.66908-0.64768l-0.66908-0.66877 7.0775-7.0776-7.0774-7.0775 1.4201-1.4201 7.0775 7.0774 7.0775-7.0774 1.4201 1.4201-7.0774 7.0775 7.0775 7.0776-1.4205 1.4199z" fill="#f17310" stroke-width=".023474"/>
<path d="m13.527 14.971-3.527-3.527-3.2394 3.2394c-1.7817 1.7817-3.2394 3.2294-3.2394 3.2171 0-0.01223-0.13202 0.10828-0.29338 0.2678-0.27835 0.27518-0.29558 0.28804-0.33641 0.25109-0.023669-0.02142-0.047934-0.03405-0.053922-0.02806-0.00599 6e-3 -0.31143-0.28979-0.67875-0.65729l-0.66787-0.66817 7.0655-7.0656-7.0656-7.0657 1.4436-1.4436 7.0657 7.0656 7.0657-7.0656 1.4436 1.4436-7.0656 7.0657 7.0655 7.0656-0.71573 0.71602c-0.39365 0.39381-0.72108 0.71602-0.72762 0.71602-0.0065 0-1.599-1.5871-3.5389-3.527z" fill="#f17310" stroke-width=".023474"/>
<path d="m2.8889 18.433c-0.053376-0.05096-0.050832-0.05773 0.0047-0.0125 0.011434 0.0093 0.023416 0.01693 0.026626 0.01693 0.012037 0 0.045407-0.02042 0.078643-0.04812 0.041159-0.0343 0.12247-0.11288 0.41634-0.40235 0.12201-0.12018 0.22276-0.21758 0.22389-0.21644 0.00279 0.0028-0.50645 0.51492-0.5099 0.51278-0.0015-9.28e-4 -0.045671 0.04128-0.098154 0.0938s-0.096608 0.09548-0.098054 0.09548c-0.00145 0-0.02129-0.01782-0.044097-0.03959z" fill="#f17310" stroke-width=".0039062"/>
</svg>
