<svg width="169" height="177" viewBox="0 0 169 177" fill="none" xmlns="http://www.w3.org/2000/svg">
<path d="M66.8969 106.559C54.9565 102.632 47.5182 93.6951 45.626 81.034C44.9735 76.5653 45.0388 74.6019 46.2785 65.8C48.4969 49.8889 48.0402 39.5298 44.843 35.9414C44.1253 35.1289 43.6686 34.2487 43.8643 34.0456C44.582 33.3008 53.782 38.2434 56.4572 40.8163C59.4586 43.7276 59.8501 43.5245 61.677 37.634C65.0699 26.6656 72.3125 14.6815 80.7295 6.21818C86.7323 0.192295 88.6897 -1.29725 87.8415 1.07248C86.7975 3.84845 86.0798 13.0565 86.3408 18.8116C86.667 24.2281 86.9933 25.8531 88.8855 29.6447C90.6472 33.2331 98.0202 43.7953 99.8471 45.2849C100.826 46.0974 105.132 54.4253 106.111 57.3367C106.698 59.097 107.351 62.7532 107.546 65.4615C107.742 68.1697 108.134 70.404 108.46 70.404C109.373 70.404 112.897 64.175 113.68 61.0605C114.071 59.5033 114.658 58.1491 114.919 58.1491C116.029 58.1491 117.66 64.175 117.986 69.3884C118.247 73.8571 118.051 75.8206 116.877 79.883C114.658 87.4661 112.636 91.0546 107.481 96.3357C103.175 100.804 97.6939 104.325 92.8656 105.882C91.4301 106.356 91.4301 106.289 93.1918 102.836C99.7819 89.7004 89.6684 69.3884 73.2912 62.8209C71.7905 62.2115 70.4855 61.8053 70.4855 61.9407C70.4855 62.0761 71.138 63.5657 71.8557 65.3938C74.0089 70.5395 73.4217 74.3987 68.9848 83.336C65.7224 89.9035 65.2657 91.19 65.2657 94.7784C65.2657 99.5179 65.9181 101.549 68.5933 105.07C70.8118 107.778 70.7465 107.846 66.8969 106.559Z" fill="#ED6C0C"/>
<path d="M18.287 176.568C9.15228 176.297 8.30405 176.026 9.41327 175.552C11.5665 174.74 144.216 174.74 151.067 175.485L156.287 176.094L150.088 176.568C142.911 177.177 38.1877 177.11 18.287 176.568ZM2.17074 170.677C0.0175548 170.407 -0.50443 169.323 0.474291 166.818C0.996275 165.464 3.27996 165.396 3.73669 166.751C4.45442 168.646 6.47711 169.323 8.23881 168.105C10.7835 166.344 10.2615 164.313 6.54236 161.402C3.54095 159.1 3.27996 158.626 3.27996 156.121C3.27996 151.11 8.10831 148.537 15.0246 149.756C17.3735 150.162 17.6998 150.433 17.3735 151.72C17.1778 152.532 16.982 153.548 16.982 154.022C16.982 154.496 16.2643 154.902 15.4161 154.902C14.2416 154.902 13.7849 154.496 13.5891 153.345C13.3282 151.381 10.7835 150.975 9.08703 152.532C7.39058 154.089 7.52108 155.24 9.47852 156.662C14.3721 160.251 14.9594 160.995 14.9594 163.636C14.9594 166.886 13.0019 169.526 9.87001 170.407C7.52108 171.151 6.15087 171.151 2.17074 170.677ZM72.7039 170.407C69.833 169.594 68.267 166.073 68.8542 161.673C69.4415 157.204 71.6599 152.871 74.1393 151.381C76.6187 149.892 81.3819 149.147 84.5138 149.824C86.7322 150.23 86.8627 150.433 86.6669 152.464C86.5365 154.089 86.145 154.699 84.9705 154.834C83.8613 154.97 83.4698 154.699 83.4698 153.683C83.4698 152.126 81.5124 151.246 79.2287 151.855C76.2273 152.668 72.8344 161.673 73.9436 166.141C74.5961 168.714 76.6187 169.526 78.2499 167.902C79.6202 166.48 80.0769 162.485 78.9024 162.485C78.5109 162.485 78.3804 162.214 78.6414 161.808C79.1634 160.995 86.7974 160.928 86.7974 161.74C86.7974 162.079 86.406 162.688 85.884 163.162C85.362 163.568 84.7748 165.464 84.5138 167.292C84.2528 169.12 83.7308 170.677 83.3393 170.677C82.9478 170.677 80.7946 170.813 78.6414 170.948C76.4883 170.881 73.8131 170.745 72.7039 170.407ZM22.0714 169.256C23.2459 168.308 23.8331 166.615 24.8771 160.725C25.5948 156.662 26.182 152.938 26.182 152.464C26.182 150.975 24.4203 151.449 22.9196 153.412C22.1366 154.428 20.9622 155.308 20.3097 155.444C19.2005 155.647 19.1352 155.308 19.3962 153.48C20.114 149.282 19.5267 149.485 29.5097 149.621L38.7096 149.756L38.2529 152.194C37.9919 153.548 37.6004 154.902 37.3394 155.173C36.4912 156.053 34.7295 154.97 34.5338 153.412C34.4033 152.532 33.8813 151.923 33.0983 151.923C31.7281 151.923 30.8799 154.699 29.4444 163.771C28.8572 167.495 28.8572 168.917 29.3792 169.053C29.7707 169.188 30.0969 169.594 30.0969 169.933C30.0969 170.271 27.9437 170.542 25.3338 170.542C20.6359 170.474 20.5707 170.407 22.0714 169.256ZM37.8614 169.865C37.8614 169.526 38.2529 169.12 38.7749 168.917C40.0799 168.375 42.8203 152.532 41.8415 151.313C40.7323 149.892 41.6458 149.553 45.9522 149.553C51.4983 149.621 56.1309 150.501 56.8486 151.584C58.4145 154.157 56.3266 160.318 53.7819 160.318C52.6075 160.318 52.6075 160.183 54.1734 163.365C54.8912 164.855 55.4784 166.344 55.4784 166.818C55.4784 167.224 55.9351 167.969 56.4571 168.443C58.2188 169.933 57.5011 170.542 54.0429 170.339L50.65 170.136L49.4756 166.48C48.2359 162.688 46.9961 161.131 46.2784 162.553C45.4302 164.245 45.0387 168.375 45.6912 168.782C47.3876 169.865 46.0174 170.474 42.1025 170.474C39.7536 170.474 37.8614 170.204 37.8614 169.865ZM51.172 158.152C53.1947 155.173 52.1507 151.517 49.2146 151.517C48.0401 151.517 47.7139 152.126 47.1919 155.579L46.5394 159.641H48.3011C49.4756 159.641 50.5848 159.1 51.172 158.152ZM86.145 170.204C86.145 170.068 86.9279 169.053 87.9719 167.969C88.9506 166.886 91.8215 162.35 94.301 157.746C98.6726 149.756 98.9336 149.418 100.956 149.418C102.653 149.418 103.175 149.756 103.37 150.975C103.697 152.803 104.871 160.657 105.458 165.193C105.719 166.954 106.111 168.579 106.437 168.782C108.003 169.797 106.568 170.407 102.783 170.407C98.8683 170.407 97.5634 169.797 99.1946 168.714C99.5861 168.511 99.847 167.428 99.847 166.277C99.847 164.313 99.7818 164.313 96.6499 164.313C93.7137 164.313 93.3875 164.448 92.8003 166.344C92.4088 167.563 92.3435 168.511 92.735 168.782C94.301 169.797 93.0613 170.474 89.7336 170.474C87.7762 170.474 86.145 170.339 86.145 170.204ZM99.5861 160.251C99.3903 159.1 99.1946 157.475 99.1946 156.73C99.1946 155.511 99.0641 155.444 98.3463 156.324C97.8896 156.865 96.7804 158.49 95.9974 159.844L94.562 162.417H97.3024C99.9775 162.35 99.9775 162.35 99.5861 160.251ZM112.636 166.954C111.918 161.199 110.548 151.99 110.221 150.839C110.026 150.027 110.809 149.756 114.006 149.621C118.312 149.418 118.704 149.621 117.073 151.246C116.29 152.058 116.159 153.277 116.485 157.136C116.942 162.756 117.66 164.787 118.443 162.756C118.704 162.079 119.943 159.777 121.118 157.678C122.619 155.105 123.271 153.209 123.141 151.855C122.945 149.824 123.01 149.824 126.403 149.621C129.6 149.418 130.97 150.23 128.882 151.043C127.904 151.449 126.077 154.157 122.88 160.318C118.117 169.323 117.268 170.407 115.115 170.474C113.158 170.474 113.092 170.339 112.636 166.954ZM127.904 169.865C127.904 169.526 128.295 169.12 128.817 168.917C130.122 168.375 132.928 152.397 131.884 151.313C130.644 150.027 131.036 149.756 133.907 149.553C138.474 149.282 145.455 150.23 146.499 151.246C147.021 151.787 147.478 153.345 147.478 154.631C147.478 156.527 146.956 157.542 145.194 159.303C143.955 160.522 143.172 161.74 143.563 161.943C143.889 162.146 144.542 163.568 144.999 165.058C146.695 170.948 149.24 170.204 153.285 162.553C160.071 149.688 160.006 149.756 162.877 149.756H165.421L166.465 158.693C167.053 163.636 167.836 168.037 168.292 168.443C169.793 170 169.075 170.339 164.508 170.339C159.875 170.339 159.092 169.865 160.984 168.308C161.572 167.834 161.898 166.683 161.833 165.667C161.637 164.11 161.311 163.907 158.636 163.704C155.83 163.501 155.569 163.636 154.786 165.6C154.133 167.224 154.133 167.902 154.786 168.646C155.96 170.136 154.655 170.407 147.282 170.204L140.888 170L139.648 166.141C138.278 161.876 136.712 160.589 136.19 163.23C135.994 164.178 135.733 165.667 135.538 166.547C135.342 167.428 135.472 168.375 135.864 168.646C137.495 169.73 136.19 170.339 132.275 170.339C129.796 170.474 127.904 170.204 127.904 169.865ZM161.18 159.032C161.18 155.376 160.201 155.037 158.57 158.287C156.874 161.74 156.874 161.74 159.223 161.74C161.05 161.673 161.18 161.537 161.18 159.032ZM141.802 157.068C142.976 155.037 142.976 154.766 141.997 153.141C141.41 152.194 140.301 151.449 139.453 151.449C138.148 151.449 137.887 151.923 137.299 155.511L136.647 159.574L138.604 159.37C140.04 159.37 140.888 158.693 141.802 157.068ZM70.2897 131.746C47.0614 128.97 30.4884 117.46 28.4005 102.7C27.8785 99.0439 29.1182 95.3201 31.7281 92.8149C33.8813 90.716 34.6643 90.7837 34.0118 93.0857C33.1636 96.2679 34.86 100.737 38.7749 105.138C44.3862 111.57 52.5422 115.497 65.0046 117.663C86.6017 121.455 108.917 117.054 120.27 106.695C124.968 102.429 128.23 96.7419 127.838 93.492L127.577 91.1899L129.404 93.018C134.428 97.9606 132.993 108.591 126.273 116.241C116.159 127.819 92.4088 134.387 70.2897 131.746Z" fill="white"/>
<g clip-path="url(#clip0)">
<path d="M10.3815 175.613C9.28149 176.113 10.0815 176.313 19.2815 176.613C39.1815 177.113 143.882 177.213 151.081 176.613L157.281 176.113L152.081 175.513C145.182 174.813 12.5815 174.813 10.3815 175.613Z" fill="#E85B04"/>
</g>
<defs>
<clipPath id="clip0">
<rect width="169" height="177" fill="white"/>
</clipPath>
</defs>
</svg>
